<svg width="0" height="0" class="hidden">
  <symbol xmlns="http://www.w3.org/2000/svg" viewBox="0 0 24 24" id="menu">
    <path d="M21.5 24h-19A2.503 2.503 0 010 21.5v-19C0 1.122 1.121 0 2.5 0h19C22.879 0 24 1.122 24 2.5v19c0 1.378-1.121 2.5-2.5 2.5zM2.5 1C1.673 1 1 1.673 1 2.5v19c0 .827.673 1.5 1.5 1.5h19c.827 0 1.5-.673 1.5-1.5v-19c0-.827-.673-1.5-1.5-1.5z"></path>
    <path d="M16.5 8h-9a.5.5 0 010-1h9a.5.5 0 010 1zm0 4.5h-9a.5.5 0 010-1h9a.5.5 0 010 1zm0 4.5h-9a.5.5 0 010-1h9a.5.5 0 010 1z"></path>
  </symbol>
  <symbol xmlns="http://www.w3.org/2000/svg" viewBox="0 0 51 51" id="chevron">
    <circle cx="25.5" cy="25.5" r="25.5" fill="#393939"></circle>
    <rect x="24.4" y="27.9" width="1.6" height="15.24" rx=".8" transform="rotate(-39 11.114 37.674)"></rect>
    <rect x="33.3" y="27.9" width="1.6" height="15.24" rx=".8" transform="rotate(37.3 44.444 24.605)"></rect>
  </symbol>
  <symbol xmlns="http://www.w3.org/2000/svg" viewBox="0 0 443.294 443.294" id="clock">
    <path d="M221.647 0C99.433 0 0 99.433 0 221.647s99.433 221.647 221.647 221.647 221.647-99.433 221.647-221.647S343.861 0 221.647 0zm0 415.588c-106.941 0-193.941-87-193.941-193.941s87-193.941 193.941-193.941 193.941 87 193.941 193.941-87 193.941-193.941 193.941z"></path>
    <path d="M235.5 83.118h-27.706v144.265l87.176 87.176 19.589-19.589-79.059-79.059z"></path>
  </symbol>
    <symbol xmlns="http://www.w3.org/2000/svg" viewBox="0 0 480 480" id="pay">
    <path d="M400 345.887l-20.375-12.207A40.09 40.09 0 00359.07 328h-30.664a72.366 72.366 0 00-18.597 2.398L217.418 355.2a32.219 32.219 0 00-21.754 20.176l-81.266-43.965a31.84 31.84 0 00-21.75-3.594 30.02 30.02 0 00-8.09 2.657 31.452 31.452 0 00-13.742 12.8 32.056 32.056 0 00-4.23 15.918 31.702 31.702 0 0015.812 27.672l145.649 87.145A39.995 39.995 0 00249.105 480h112.72a39.882 39.882 0 0014.702-2.8L400 467.93V480h80V320h-80zM370.648 462.32a24.068 24.068 0 01-8.8 1.68H249.105a24.07 24.07 0 01-12.746-3.664L90.512 373.09a15.915 15.915 0 01-7.953-13.89 16.25 16.25 0 012.144-8 15.728 15.728 0 016.871-6.345 15.076 15.076 0 014-1.296 16.839 16.839 0 013.067-.286c2.75-.007 5.453.711 7.84 2.079l88.12 47.617c.102.488.102.969.231 1.457 3.79 13.965 16.457 23.664 30.93 23.68a78.627 78.627 0 0013.183-2.352l83.117-22.242-4.125-15.457-82.847 22.144c-3.649.84-8.356 1.801-9.328 1.883a16 16 0 01-15.465-11.785 14.621 14.621 0 01-.465-2.961s-.062-1.938 0-2.617a16.17 16.17 0 0111.77-14.11l92.351-24.707A55.913 55.913 0 01328.406 344h30.664a23.99 23.99 0 0112.328 3.41L400 364.535v86.184zM416 336h48v128h-48zM329.953 64L287.04 21.09A71.5 71.5 0 00236.13 0H135.55a40.273 40.273 0 00-17.887 4.223l-17.93 8.968a23.71 23.71 0 01-11.605 2.512L80 15.418V0H0v176h80v-24h13.602l4.84 3.2A88.197 88.197 0 00144 169.862V272h336V64zM64 160H16V16h48zm43.297-18.113L98.398 136H80V31.426l7.543.27a40.162 40.162 0 0019.344-4.192l17.914-8.969A24.046 24.046 0 01135.55 16h100.578a55.622 55.622 0 0139.598 16.398L307.328 64h-66.015l-19.418-19.414-11.31 11.309 56.513 56.515c6.277 6.25 6.297 16.406.047 22.688-6.254 6.277-16.41 6.297-22.688.047l-47.2-47.2-5.6 4.801c-15.466 13.133-38.071 13.469-53.923.797l-4.636-3.758-10.082 12.43 4.687 3.8A58.317 58.317 0 00144 115.2v38.656a72.144 72.144 0 01-36.703-11.968zm113.8-7.489l12.071 12.075c12.531 12.343 32.648 12.363 45.2.039-11.743 18.183-7.11 42.383 10.519 54.941 17.629 12.559 42.015 9.031 55.363-8.004 13.348-17.039 10.938-41.562-5.477-55.672-16.41-14.109-41.02-12.816-55.859 2.934A31.463 31.463 0 00285.535 112h107.13c3.44 20.129 19.206 35.895 39.335 39.336v33.328c-20.129 3.441-35.895 19.207-39.336 39.336H231.336c-3.441-20.129-19.207-35.895-39.336-39.336v-33.328a47.756 47.756 0 0029.098-16.938zM288 168c0-13.254 10.746-24 24-24s24 10.746 24 24-10.746 24-24 24-24-10.746-24-24zm176 88H160V118.55a58.17 58.17 0 0036-9.198L209.648 123A31.923 31.923 0 01184 136h-8v64h8c17.672 0 32 14.328 32 32v8h192v-8c0-17.672 14.328-32 32-32h8v-64h-8c-17.672 0-32-14.328-32-32v-8H273.312l-16-16H464zm0 0"></path>
  </symbol>
  <symbol xmlns="http://www.w3.org/2000/svg" viewBox="0 0 512.001 512.001" id="church">
    <path d="M295.761 229.028c-6.041-6.044-14.076-9.372-22.622-9.372-6.165 0-12.061 1.731-17.138 4.964-5.077-3.233-10.975-4.964-17.139-4.964-8.546 0-16.58 3.328-22.621 9.371-6.044 6.042-9.373 14.077-9.373 22.623 0 8.546 3.328 16.581 9.372 22.624l34.277 34.274a7.732 7.732 0 005.485 2.272 7.737 7.737 0 005.486-2.272l34.273-34.275c12.473-12.475 12.473-32.772 0-45.245zm-10.973 34.275L256 292.092l-28.79-28.79a16.372 16.372 0 01-4.828-11.653 16.378 16.378 0 014.83-11.652 16.363 16.363 0 0111.65-4.826c4.402 0 8.541 1.714 11.654 4.827a7.757 7.757 0 0010.971-.001 16.364 16.364 0 0111.651-4.826c4.401 0 8.538 1.714 11.65 4.827 6.424 6.425 6.424 16.88 0 23.305z"></path>
    <path d="M504.242 471.144H480.97V316.959l10.275 3.736a7.754 7.754 0 002.65.469 7.763 7.763 0 007.292-5.109 7.757 7.757 0 00-4.639-9.941l-113.773-41.373a7.758 7.758 0 00-5.303 14.58l87.983 31.995v159.827H356.848V239.735l7.711 7.01c.044.041.093.075.138.115a8.538 8.538 0 00.593.467 8.084 8.084 0 00.927.566 8.161 8.161 0 001.052.448c.104.035.207.071.312.102.134.039.27.072.406.104.103.025.205.051.31.071.155.03.309.05.464.071.09.012.178.027.269.036.247.024.497.038.745.038h.002c.812 0 1.596-.126 2.331-.358.036-.012.071-.027.105-.039.21-.069.418-.144.62-.231.085-.036.166-.081.249-.12.149-.071.299-.14.443-.22.098-.054.193-.117.289-.176.125-.077.252-.153.372-.236.096-.066.188-.139.281-.21a7.58 7.58 0 00.346-.275 9.086 9.086 0 00.587-.559c.037-.04.079-.074.116-.115.039-.043.073-.091.111-.135a8.493 8.493 0 00.481-.612c.077-.108.148-.219.22-.33.067-.106.132-.211.193-.319.063-.11.12-.222.178-.336.056-.113.113-.227.165-.342.051-.114.096-.23.141-.347.046-.119.092-.238.131-.359.039-.118.073-.237.106-.357.034-.125.069-.25.097-.376a7.03 7.03 0 00.069-.357 6.812 6.812 0 00.095-.747 8.84 8.84 0 00.022-.43c.001-.058.008-.114.008-.171v-41.381c0-.058-.007-.113-.008-.17a8.413 8.413 0 00-.114-1.161 6.712 6.712 0 00-.074-.38c-.026-.118-.058-.234-.09-.351-.035-.127-.07-.254-.111-.378-.038-.116-.082-.229-.126-.343a7.72 7.72 0 00-.142-.355 7.302 7.302 0 00-.167-.345c-.055-.109-.109-.217-.169-.323a7.792 7.792 0 00-.205-.338c-.065-.101-.129-.203-.198-.301-.074-.105-.153-.207-.232-.31a8.768 8.768 0 00-.242-.299 8.657 8.657 0 00-.542-.569c-.04-.038-.076-.081-.118-.119L263.758 92.758V62.576h12.929a7.758 7.758 0 000-15.516h-12.929V33.099a7.758 7.758 0 00-15.516 0v13.963h-12.929a7.758 7.758 0 000 15.516h12.929V92.76L137.005 193.884c-.042.038-.078.081-.12.121a7.664 7.664 0 00-1.015 1.175c-.07.099-.134.201-.199.303-.07.111-.14.222-.204.336a6.736 6.736 0 00-.171.326 6.653 6.653 0 00-.164.341c-.053.118-.099.239-.146.36-.042.112-.085.223-.123.336-.042.127-.078.256-.114.385-.031.114-.062.227-.088.342-.029.128-.052.258-.075.388a7.635 7.635 0 00-.092.74c-.01.137-.017.273-.02.411-.002.059-.009.116-.009.175v39.308c0 .346.03.684.074 1.018a7.743 7.743 0 001.943 6.273 7.736 7.736 0 005.742 2.539c1.862 0 3.73-.666 5.216-2.018l7.712-7.011v231.41H46.544V311.316l87.983-31.995a7.756 7.756 0 004.639-9.941 7.757 7.757 0 00-9.941-4.639L15.452 306.114a7.756 7.756 0 00-4.639 9.941 7.751 7.751 0 009.942 4.64l10.275-3.737v154.186H7.758a7.758 7.758 0 000 15.516h496.485a7.758 7.758 0 10-.001-15.516zM149.98 223.469v-20.413L256 106.673l106.019 96.382v20.413l-100.801-91.637-.015-.012a7.76 7.76 0 00-.47-.386c-.046-.036-.091-.077-.137-.112a7.096 7.096 0 00-.492-.326c-.053-.033-.103-.072-.157-.104-.141-.083-.288-.155-.433-.229-.083-.042-.164-.09-.248-.13-.099-.046-.202-.082-.303-.123-.133-.056-.266-.115-.402-.163-.038-.013-.078-.022-.116-.034a7.765 7.765 0 00-1.335-.32c-.025-.004-.052-.004-.077-.008a7.673 7.673 0 00-.66-.063 7.769 7.769 0 00-3.436.627c-.067.029-.135.052-.202.082-.102.047-.2.105-.3.157-.128.066-.257.128-.381.202-.061.036-.119.08-.18.118-.159.1-.317.2-.47.313-.05.037-.098.081-.147.12a7.401 7.401 0 00-.459.377l-.017.014-100.801 91.638zm98.262 247.675h-25.857v-74.99c0-15.866 11.051-29.189 25.857-32.702v107.692zm41.374 0h-25.858V363.452c14.807 3.512 25.858 16.836 25.858 32.702v74.99zm51.717 0h-36.202v-74.99c0-27.091-22.04-49.13-49.131-49.13-27.09 0-49.13 22.04-49.13 49.13v74.99h-36.202V225.63L256 148.054l85.333 77.576v245.514z"></path>
    <path d="M100.851 326.334c-15.686 0-28.445 12.76-28.445 28.444v62.059a7.758 7.758 0 007.758 7.758h41.373a7.758 7.758 0 007.758-7.758v-62.059c0-15.684-12.76-28.444-28.444-28.444zm12.928 82.746H87.921v-54.302c0-7.129 5.8-12.929 12.929-12.929 7.129 0 12.929 5.8 12.929 12.929v54.302zm297.372-82.746c-15.684 0-28.444 12.76-28.444 28.444v62.059a7.758 7.758 0 007.758 7.758h41.372a7.758 7.758 0 007.758-7.758v-62.059c0-15.684-12.76-28.444-28.444-28.444zm12.928 82.746h-25.858v-54.302c0-7.129 5.8-12.929 12.929-12.929 7.129 0 12.929 5.8 12.929 12.929v54.302z"></path>
  </symbol>
  <symbol xmlns="http://www.w3.org/2000/svg" viewBox="0 0 512 512" id="no-food">
    <path d="M256 10A246 246 0 0082.052 429.948a246 246 0 10347.9-347.9A244.39 244.39 0 00256 10zm165.463 411.463A234 234 0 0190.537 90.537a234 234 0 01330.926 330.926z"></path>
    <path d="M256 45.139a211.1 211.1 0 00-135.021 48.893 6 6 0 00-.413 8.835l287.653 289.592a6 6 0 004.257 1.771h.225a6.01 6.01 0 004.337-2.1c32.594-38.144 49.823-85.216 49.823-136.128 0-116.272-94.592-210.863-210.861-210.863zm-23.858 153.028l144.186.372a4.729 4.729 0 014.715 4.745v.1a4.7 4.7 0 01-1.395 3.341 4.843 4.843 0 01-3.348 1.375l-134.692-.4zm-2.186-12a19.99 19.99 0 0119.011-13.945h.058l96.8.279a19.957 19.957 0 0118.993 14.013zm23.608 33.572l115.563.345-4.58 26.916h-83.9zm98.714 99.378L292.568 259h69.937zm59.792 60.2l-49.4-49.733L381.434 219.3a16.72 16.72 0 0011.609-15.879v-.1a16.693 16.693 0 00-15.865-16.735 31.96 31.96 0 00-31.321-26.086l-46.116-.133 3.351-50.687a5.491 5.491 0 016.51-5.032l33.386 11.507a6 6 0 003.91-11.345l-33.714-11.62a5.858 5.858 0 00-.568-.165 17.493 17.493 0 00-21.5 15.864l-3.4 51.443-38.658-.111h-.093a32.014 32.014 0 00-30.881 23.8l-84.316-84.89A199.121 199.121 0 01256 57.139c109.652 0 198.861 89.209 198.861 198.861 0 45.8-14.77 88.291-42.791 123.308zM103.251 120.138a6 6 0 00-8.838.385A210.992 210.992 0 0046.435 232.8a5.994 5.994 0 0011.918 1.3 199.058 199.058 0 0141.12-100.77l105.582 105.579a63.134 63.134 0 00-7.045-.457l-12.967-.037a74.444 74.444 0 00-74.658 74.229l-.02 6.772a12.012 12.012 0 008.982 11.636v1.694h-.166a16.232 16.232 0 00-8.569 30.047 12.642 12.642 0 00-.376 2.975l-.011 3.807a26.138 26.138 0 0026.063 26.214l114.381.33h.077a26.369 26.369 0 005.151-.505l78.69.4h.039a19.72 19.72 0 0017.349-10.192l26.725 26.731c-34.863 27.706-77.141 42.308-122.7 42.308-103.294 0-188.432-79.167-197.96-180.01a5.984 5.984 0 00-5.959-5.423h-.014a5.986 5.986 0 00-5.975 6.52C56.175 382.9 146.459 466.861 256 466.861c50.62 0 97.443-17.02 135.416-49.222a6.155 6.155 0 001.628-2.062 6.021 6.021 0 00-1.178-6.832zm163.415 211.6a12.01 12.01 0 0010.357-11.838v-1.968a64.3 64.3 0 00-.463-7.51l40.64 40.628h-35.47a16.227 16.227 0 00-4.641-13.139 16.122 16.122 0 00-10.427-4.736zm-144.281-19.059a62.444 62.444 0 0162.438-62.264h.186l12.966.037c6.924.02 16.133 2.01 22.723 4.1l40.328 40.327c2.015 6.538 4.022 16.071 4 23.014v1.968l-142.658-.41zm132.28 19.153v1.262l-46.683-.115h-.035a10 10 0 00-7.561 3.35 6.039 6.039 0 00-.53.7L187.58 356.14l-.07.109-4.239 6.6-21.079-26.688a6.1 6.1 0 00-.606-.66 10.064 10.064 0 00-6.891-2.679l-23.349-.053v-1.3zM116.163 352a4.253 4.253 0 013.014-7.251h.01l34.55.078 6.734 8.527-37.635-.092v-.023h-.036c-.149 0-.294.017-.442.022l-3.189-.008a4.226 4.226 0 01-3.006-1.253zm148.715 18.024a14.138 14.138 0 01-14.137 14.1h-.041l-114.381-.33a14.137 14.137 0 01-14.1-14.179l.011-3.807a.54.54 0 01.45-.544l47.285.115 5.95 7.532a5.957 5.957 0 00.608.662 10.145 10.145 0 006.917 2.677c.174 0 .349 0 .524-.014a10.021 10.021 0 007.036-3.342 5.956 5.956 0 00.53-.7l4.332-6.743 68.458.173v.025a.568.568 0 01.566.569zm.69-16.4h-.012l-61.995-.157 5.449-8.483 56.568.139a4.251 4.251 0 01-.01 8.5zm69.072 30.392h-.015l-61.631-.314a25.963 25.963 0 003.884-13.643l.011-3.809a12.546 12.546 0 00-.418-3.2H329.2L342.144 376l.114 1.942a7.787 7.787 0 01-7.618 6.072z"></path>
  </symbol>
  <symbol xmlns="http://www.w3.org/2000/svg" viewBox="-12 0 496 496" id="assigment">
    <path d="M232 280c0-13.23-10.77-24-24-24h-72v-40c0-6.031-2.313-11.488-6-15.71 13.215-8.556 22-23.403 22-40.29v-24c0-26.473-21.527-48-48-48s-48 21.527-48 48v24c0 16.055 7.953 30.266 20.098 38.984-3.328 8.106-6.02 16.473-7.985 25.016H24c-13.23 0-24 10.77-24 24s10.77 24 24 24h8v72c0 15.688 9.16 29.152 22.336 35.703l-29.23 87.672A21.938 21.938 0 0024 474.23c0 12 9.77 21.77 22.297 21.77 9.168 0 17.406-5.809 20.496-14.45L78.777 448H160v48h168V336h16v-48H230.527c.899-2.512 1.473-5.184 1.473-8zm-24-8c4.414 0 8 3.586 8 8s-3.586 8-8 8h-96c-4.414 0-8-3.586-8-8v-64c0-4.414 3.586-8 8-8s8 3.586 8 8v56zm-96 32h48v32H80v-76.223c0-16.488 2.91-33 8.48-48.547A24.03 24.03 0 0088 216v64c0 13.23 10.77 24 24 24zM72 136c0-17.648 14.352-32 32-32s32 14.352 32 32v24c0 17.648-14.352 32-32 32s-32-14.352-32-32zM24 256c-4.414 0-8-3.586-8-8s3.586-8 8-8h41.281C64.45 246.559 64 253.168 64 259.777V336c0 8.824 7.176 16 16 16h80v16H72c-13.23 0-24-10.77-24-24v-88zm77.633 128H160v16H95.922zm-49.899 92.168C50.91 478.465 48.727 480 45.77 480a5.773 5.773 0 01-5.77-5.77c0-.605.105-1.246.29-1.824l29.542-88.629c.734.047 1.426.223 2.168.223h12.648zM84.496 432l5.711-16H160v16zM312 480H176V336h136zm16-160H176v-16h152zm0 0"></path>
    <path d="M445.871 109.512C456.895 100.71 464 87.176 464 72V48c0-26.473-21.527-48-48-48s-48 21.527-48 48v24c0 18.36 10.375 34.336 25.559 42.398-4.848 3.809-9.024 8.532-12.168 14.036-9.88 17.285-16.207 35.992-19.246 55.558H320c-13.23 0-24 10.77-24 24s10.77 24 24 24h40v48h16v216h96V152.496c0-18.672-10.625-34.879-26.129-42.984zM384 72V48c0-17.648 14.352-32 32-32s32 14.352 32 32v24c0 17.648-14.352 32-32 32s-32-14.352-32-32zm8 70.863V184h-13.664A144.978 144.978 0 01392 142.863zM312 208c0-4.414 3.586-8 8-8h88v-72c0-1.887.754-3.55 1.848-4.922a32.604 32.604 0 018.457-2.613c3.27 1.008 5.695 3.941 5.695 7.535v80c0 4.414-3.586 8-8 8h-96c-4.414 0-8-3.586-8-8zm104 24c13.23 0 24-10.77 24-24v-80c0-1.207-.184-2.375-.36-3.535 9.727 5.613 16.36 16.015 16.36 28.031V264h-80v-32zm-24 48h16v200h-16zm32 200V280h32v200zM304 32h16v16h-16zm-32 0h16v16h-16zm-32 0h16v16h-16zm0 0"></path>
    <path d="M304 110.137V80h48V0H208v80h45.785zM224 16h112v48h-48v17.863L258.215 64H224zm-24 144h16v16h-16zm32 0h16v16h-16zm0 0"></path>
    <path d="M216 230.945L250.426 208H280v-80H168v80h48zM184 192v-48h80v48h-18.426L232 201.055V192zm0 0"></path>
  </symbol>
  <symbol xmlns="http://www.w3.org/2000/svg" viewBox="0 0 480 480" id="time">
    <path d="M240 0C107.452 0 0 107.452 0 240s107.452 240 240 240 240-107.452 240-240C479.85 107.514 372.486.15 240 0zm0 464C116.288 464 16 363.712 16 240S116.288 16 240 16s224 100.288 224 224c-.141 123.653-100.347 223.859-224 224z"></path>
    <path d="M240 40C129.543 40 40 129.543 40 240s89.543 200 200 200 200-89.543 200-200c-.123-110.406-89.594-199.877-200-200zm0 384c-101.62 0-184-82.38-184-184S138.38 56 240 56s184 82.38 184 184c-.115 101.573-82.427 183.885-184 184z"></path>
    <path d="M232 80h16v16h-16zm0 304h16v16h-16zm-78.939-278.558l13.847-7.997 7.998 13.847-13.847 7.998zm151.964 263.222l13.847-7.998 7.998 13.848-13.847 7.997zM97.429 166.928l8-13.856 13.856 8-8 13.856zm263.244 152.027l8-13.856 13.856 8-8 13.856zM80 232h16v16H80zm304 0h16v16h-16zM97.433 313.083l13.858-7.999 7.998 13.858-13.857 7.998zm263.238-152.011l13.856-8 8 13.856-13.856 8zM153.02 374.543l7.998-13.847 13.848 7.998-7.998 13.847zm152.042-263.236l7.997-13.847 13.848 7.997-7.998 13.848zM232 112v123.472l-76.12 45.672 8.24 13.712 80-48A7.998 7.998 0 00248 240V112h-16z"></path>
  </symbol>
  <symbol xmlns="http://www.w3.org/2000/svg" viewBox="0 0 512 512" id="video-camera">
    <path d="M263.5 243.01l-90-51.961c-9.977-5.761-22.5 1.447-22.5 12.99v103.923c0 11.503 12.483 18.774 22.5 12.99l90-51.961c9.964-5.752 10.014-20.2 0-25.981zM181 281.98v-51.96L226 256z"></path>
    <path d="M490.338 137.561L391 186.799V121c0-8.284-6.716-15-15-15H15c-8.284 0-15 6.716-15 15v270c0 8.284 6.716 15 15 15h361c8.284 0 15-6.716 15-15v-64.978l99.428 48.462C500.377 379.332 512 372.081 512 361V151c0-11.093-11.679-18.387-21.662-13.439zM30 376V136h331v240zm452-38.998l-91-44.354v-72.367l91-45.105z"></path>
  </symbol>
  <symbol xmlns="http://www.w3.org/2000/svg" viewBox="0 0 512 512" id="calendar">
    <circle cx="386" cy="210" r="20"></circle>
    <path d="M432 40h-26V20c0-11.046-8.954-20-20-20s-20 8.954-20 20v20h-91V20c0-11.046-8.954-20-20-20s-20 8.954-20 20v20h-90V20c0-11.046-8.954-20-20-20s-20 8.954-20 20v20H80C35.888 40 0 75.888 0 120v312c0 44.112 35.888 80 80 80h153c11.046 0 20-8.954 20-20s-8.954-20-20-20H80c-22.056 0-40-17.944-40-40V120c0-22.056 17.944-40 40-40h25v20c0 11.046 8.954 20 20 20s20-8.954 20-20V80h90v20c0 11.046 8.954 20 20 20s20-8.954 20-20V80h91v20c0 11.046 8.954 20 20 20s20-8.954 20-20V80h26c22.056 0 40 17.944 40 40v114c0 11.046 8.954 20 20 20s20-8.954 20-20V120c0-44.112-35.888-80-80-80z"></path>
    <path d="M391 270c-66.72 0-121 54.28-121 121s54.28 121 121 121 121-54.28 121-121-54.28-121-121-121zm0 202c-44.663 0-81-36.336-81-81s36.337-81 81-81 81 36.336 81 81-36.337 81-81 81z"></path>
    <path d="M420 371h-9v-21c0-11.046-8.954-20-20-20s-20 8.954-20 20v41c0 11.046 8.954 20 20 20h29c11.046 0 20-8.954 20-20s-8.954-20-20-20z"></path>
    <circle cx="299" cy="210" r="20"></circle>
    <circle cx="212" cy="297" r="20"></circle>
    <circle cx="125" cy="210" r="20"></circle>
    <circle cx="125" cy="297" r="20"></circle>
    <circle cx="125" cy="384" r="20"></circle>
    <circle cx="212" cy="384" r="20"></circle>
    <circle cx="212" cy="210" r="20"></circle>
  </symbol>
  <symbol xmlns="http://www.w3.org/2000/svg" viewBox="0 0 512 512" id="friend">
    <path d="M503.624 161.319c5.437-6.157 7.827-14.733 6.578-23.799-1.209-8.773-5.655-17.387-12.52-24.251-11.395-11.395-26.98-15.337-39.16-11.098V84.868c0-29.104-23.679-52.782-52.783-52.782s-52.782 23.678-52.782 52.782v21.392c0 .078.005.154.006.231h-44.187c0-.078.006-.154.006-.231V84.868c0-29.104-23.678-52.782-52.782-52.782s-52.782 23.678-52.782 52.782v21.392c0 .078.005.154.006.231h-44.187c0-.078.006-.154.006-.231V84.868c0-29.104-23.678-52.782-52.782-52.782S53.479 55.764 53.479 84.868v17.302c-12.18-4.238-27.765-.296-39.161 11.098-6.864 6.864-11.311 15.478-12.52 24.251-1.25 9.065 1.142 17.642 6.578 23.8C2.886 174.311 0 188.397 0 202.523v74.869c0 17.31 14.082 31.392 31.392 31.392h11.391v151.13H31.391c-5.523 0-10 4.478-10 10s4.477 10 10 10h449.218c5.522 0 10-4.478 10-10s-4.478-10-10-10h-11.392v-151.13h11.392c17.309 0 31.391-14.082 31.391-31.392v-74.869c0-14.126-2.886-28.212-8.376-41.204zm-41.029-38.744c1.728-1.728 4.141-2.154 6.102-2.154.757 0 1.447.063 2.004.141 4.415.608 9.095 3.105 12.839 6.85s6.241 8.424 6.85 12.839c.275 2 .38 5.711-2.015 8.106s-6.107 2.288-8.105 2.014c-4.415-.608-9.095-3.105-12.839-6.85-7.598-7.596-8.645-17.136-4.836-20.946zm-89.638-37.707c0-18.076 14.706-32.782 32.782-32.782h.001c18.076 0 32.782 14.706 32.782 32.782v21.392c0 18.076-14.706 32.782-32.783 32.782-18.076 0-32.782-14.706-32.782-32.782zm-149.739 0c0-18.076 14.706-32.782 32.782-32.782s32.782 14.706 32.782 32.782v21.392c0 18.076-14.706 32.782-32.782 32.782s-32.782-14.706-32.782-32.782zM256 159.042c21.94 0 40.79-13.458 48.744-32.551h26.929a107.357 107.357 0 00-15.771 19.44 105.616 105.616 0 00-16.424 56.591v64.904c-.231-.016-.461-.035-.696-.035h-85.564c-.235 0-.465.019-.696.035v-64.904c0-20.057-5.679-39.625-16.423-56.591a107.322 107.322 0 00-15.771-19.44h26.928c7.954 19.093 26.804 32.551 48.744 32.551zm193.217 204.611h-33.479v-38.697c0-5.522-4.478-10-10-10s-10 4.478-10 10v38.697H362.26v-76.296c.231.016.461.035.696.035h85.564c.235 0 .465-.019.696-.035v76.296zm-86.957 20h33.479v76.261H362.26zm-20-94.87h-11.39c-6.275 0-11.38-5.1-11.391-11.372v-.019l-.001-.019v-64.85l22.782-.002zm-279.477-1.426c.231.016.461.035.696.035h85.564c.235 0 .465-.019.696-.035v76.296H62.783zm86.956 96.296v76.261H116.26v-76.261zM159.74 192.52a10.003 10.003 0 00-10.001 10v64.907c-.231-.016-.461-.035-.696-.035H63.479c-.235 0-.465.019-.696.035V202.52a10.001 10.001 0 00-10.001-10l-32.21.002a84.208 84.208 0 015.704-22.211c1.151.126 2.32.197 3.506.197 1.538 0 3.102-.107 4.68-.325 8.774-1.209 17.387-5.655 24.251-12.52 4.381-4.381 7.653-9.384 9.791-14.573 9.592 9.831 22.971 15.952 37.758 15.952 20.459 0 38.223-11.708 46.979-28.769 21.655 14.07 35.766 36.755 38.708 62.248zm9.999 20.001l22.782.002v64.869c0 6.281-5.11 11.392-11.391 11.392h-11.391zM73.479 84.868c0-18.076 14.706-32.782 32.782-32.782s32.782 14.706 32.782 32.782v21.392c0 18.076-14.706 32.782-32.782 32.782s-32.782-14.706-32.782-32.782zM21.611 140.25c.608-4.415 3.105-9.095 6.85-12.839 4.798-4.798 10.37-6.984 14.785-6.984 2.575 0 4.756.744 6.16 2.147 3.81 3.811 2.761 13.35-4.836 20.946-3.744 3.744-8.423 6.241-12.838 6.85-1.999.273-5.711.381-8.106-2.015-2.396-2.393-2.291-6.105-2.015-8.105zm9.781 148.533c-6.281 0-11.392-5.11-11.392-11.392v-64.869l22.783-.002v76.263zm31.391 94.87h33.478v76.261H62.783zm106.956 76.26v-151.13h11.391c4.018 0 7.857-.767 11.391-2.148v153.278zm96.261 0v-89.961c0-5.522-4.478-10-10-10s-10 4.478-10 10v89.961h-33.479V287.357c.231.016.461.035.696.035h85.564c.235 0 .466-.019.697-.035l-.001 172.557H266zm53.479-153.278a31.223 31.223 0 0011.391 2.148h11.391v151.13h-22.782zm96.26 153.278v-76.261h33.479v76.261zm43.479-267.393c-.001 0-.001 0 0 0a10.003 10.003 0 00-10.001 10v64.907c-.231-.016-.461-.035-.696-.035h-85.564c-.235 0-.465.019-.696.035V202.52a10.001 10.001 0 00-10.001-10l-32.208.002c2.943-25.494 17.053-48.178 38.708-62.249 8.756 17.061 26.521 28.769 46.98 28.769 14.788 0 28.166-6.12 37.758-15.951 2.138 5.189 5.409 10.192 9.79 14.573 6.864 6.864 15.478 11.311 24.251 12.52 1.578.218 3.142.325 4.681.325a32.19 32.19 0 003.505-.197 84.247 84.247 0 015.704 22.211zM492 277.392c0 6.281-5.109 11.392-11.391 11.392h-11.392v-76.263l22.783.002z"></path>
    <path d="M256 314.952c-5.523 0-10 4.481-10 10.004s4.477 10 10 10 10-4.478 10-10v-.008c0-5.522-4.477-9.996-10-9.996z"></path>
  </symbol>
  <symbol xmlns="http://www.w3.org/2000/svg" viewBox="0 0 512 512" id="family">
    <path d="M395.022 283.092a7.5 7.5 0 00-10.611-10.603 12.218 12.218 0 01-8.702 3.604 12.22 12.22 0 01-8.702-3.604 7.5 7.5 0 00-10.611 10.603c5.156 5.16 12.014 8.001 19.313 8.001s14.158-2.841 19.313-8.001zm-39.342-49.918c-7.546-7.279-19.823-7.278-27.369 0a7.499 7.499 0 00-.191 10.604 7.499 7.499 0 0010.604.191c1.773-1.709 4.769-1.71 6.543 0a7.472 7.472 0 005.205 2.102 7.499 7.499 0 005.208-12.897zm50.472 10.796c1.781-1.718 4.79-1.718 6.571 0a7.472 7.472 0 005.205 2.102 7.499 7.499 0 005.208-12.897c-7.553-7.286-19.844-7.286-27.397 0a7.5 7.5 0 0010.413 10.795zM234.943 388.153a7.5 7.5 0 007.5-7.5v-4.772a7.5 7.5 0 00-15 0v4.772a7.5 7.5 0 007.5 7.5zm42.488 0a7.5 7.5 0 007.5-7.5v-4.772a7.5 7.5 0 00-15 0v4.772a7.5 7.5 0 007.5 7.5z"></path>
    <path d="M511.786 458.5l-8.97-69.398c-1.4-10.89-4.73-20.48-9.92-28.499-2.25-3.48-6.89-4.48-10.37-2.23s-4.48 6.89-2.23 10.37c4.02 6.21 6.51 13.49 7.64 22.28l8.77 67.858h-51.021v-31.864a7.5 7.5 0 00-15 0v31.864H335.31c-7.88-12.33-21.88-17.51-34.469-21.07-.1-.03-.2-.06-.29-.08-1.97-.56-3.91-1.07-5.77-1.57-1.21-.32-2.4-.64-3.56-.96-1.36-.37-2.49-2.21-3.38-4.15 18.28-12.57 31.849-33.939 31.849-52.599v-16.91c0-6.9-.72-13.45-2.15-19.6 2.45-.68 8.98-2.42 9.79-2.63l34.209 23.179c3.59 2.66 8.39 5.63 14.17 5.61 5.74.07 10.58-2.95 14.17-5.61l34.219-23.189c.67.19 1.36.37 2.04.55 10.4 2.76 21.159 5.61 30.739 9.99 3.77 1.71 8.22.05 9.94-3.71 1.72-3.77.06-8.22-3.71-9.94-10.74-4.9-22.119-7.92-33.119-10.84-1.755-.47-3.507-.954-5.259-1.432-4.05-1.105-6.504-6.204-8.191-10.521 26.89-17.424 47.148-48.397 47.148-75.308v-58.758c0-30.178-22.829-57.448-58.158-69.473-14.805-5.04-30.487-6.711-44.15-4.707-14.26 2.091-25.967 7.979-34.072 17.097-16.54 2.596-40.575 15.406-39.756 68.052.008.504.015 47.789.015 47.789 0 26.9 20.337 57.89 47.323 75.327-1.689 4.323-4.145 9.396-8.197 10.503a7.913 7.913 0 00-.564.185c-1.68.449-10.605 2.827-13.435 3.617-3.14-6.72-7.31-12.73-12.47-17.9-11.39-11.44-26.729-17.89-43.179-18.16h-.24c-16.46.27-31.799 6.72-43.199 18.16-5.99 6.01-10.63 13.17-13.89 21.25-5.99-2.03-20.41-5.97-20.41-5.97-4.11-1.12-6.56-6.43-8.24-10.78 20.01-15.23 34.479-39.119 34.479-60.109v-20.58c0-3.94-3.05-7.21-6.98-7.49-11.04-.77-15.19-5.02-19.59-9.51-4.8-4.9-11.37-11.61-24.779-8.14-3.5.9-6.48 1.69-9.05 2.38-7.49 2-11.25 3-14.36 3-3.12 0-6.88-1-14.37-3-2.57-.69-5.54-1.48-9.04-2.38-13.44-3.46-20.01 3.25-24.809 8.15-4.4 4.49-8.55 8.73-19.57 9.5a7.504 7.504 0 00-6.97 7.49v20.58c0 20.98 14.46 44.879 34.469 60.109-1.67 4.36-4.12 9.66-8.24 10.78l-2.1.58c-17.18 4.67-35.719 9.72-49.239 22.869-3.24-1.05-14.18-3.42-15.25-3.68.5-1.08 1.39-2.7 2.94-4.99 16.71-24.669 23.529-60.499 23.529-123.677 0-33.319 14.33-55.519 28.229-57.739l.62-.09c2.03-.28 6.8-.94 9.43-5.99 9.15-17.61 35.359-27.449 63.749-23.939 28.449 3.52 62.279 21.71 71.878 62.199 1.69 7.21 2.74 15.1 3.39 25.569 0 16.87.3 36.709 2.44 56.129.46 4.12 4.16 7.09 8.28 6.63 4.12-.45 7.09-4.16 6.63-8.27-2.07-18.79-2.35-38.209-2.35-54.719 0-.15-.01-.31-.02-.46-.7-11.46-1.86-20.19-3.77-28.319-11.38-47.989-51.179-69.508-84.638-73.648-34.099-4.22-65.069 7.83-77.898 30.079l-.15.03c-23.66 3.78-40.819 34.289-40.819 72.538 0 59.909-6.07 93.298-20.94 115.257-4.14 6.11-8.01 13.24-5.29 19.85 2.68 6.52 9.62 7.89 15.2 8.98l1.07.22c1.37.27 2.66.55 3.89.85-4.27 7.52-7.39 16.8-8.88 28.389l-8.86 68.798c-.4 3.12-.58 7.68 2.6 11.29 3.54 4.04 8.99 4.04 11.05 4.04h155.967c-.46 2.79-.71 5.81-.71 9.07v14.6c0 6.59 5.36 11.96 11.96 11.96H329.62c6.6 0 11.96-5.37 11.96-11.96v-14.6c0-3.26-.24-6.28-.71-9.07h157.186c3.52 0 7.96-.46 11.11-4.05 3.19-3.619 3.02-8.199 2.62-11.329zM381.339 350.162c-.09.06-.18.12-.27.19-3.06 2.27-4.55 2.75-5.26 2.75h-.1c-.04 0-.07.01-.1 0-.71 0-2.2-.48-5.26-2.75a2.61 2.61 0 00-.27-.19l-28.138-19.071c2.857-3.311 4.808-7.127 6.216-10.481a85.903 85.903 0 004.786 1.963c8.339 3.093 15.578 4.534 22.78 4.534 7.215 0 14.448-1.442 22.752-4.534a84.752 84.752 0 004.795-1.969c1.406 3.349 3.356 7.168 6.212 10.483zm-49.502-213.363a7.5 7.5 0 005.282-2.895c8.027-10.425 21.524-14.59 35.827-14.59 9.339 0 19.024 1.776 27.748 4.746 22.139 7.535 47.992 26.533 47.992 55.273v30.844h-7.142c-11.964 0-19.435-7.008-28.894-15.88-11.409-10.701-24.341-22.831-47.449-22.831h-25.504c-20.303 0-23.645 16.326-25.857 27.129-2.352 11.486-3.987 16.214-11.275 17.254 0 0-.007-25.181-.017-25.781-.36-23.087 4.43-51.07 29.289-53.269zm-29.273 101.293v-7.178c20.319-1.767 23.699-18.215 25.97-29.31 2.512-12.269 3.843-15.137 11.162-15.137H365.2c17.174 0 26.895 9.118 37.187 18.772 9.964 9.346 21.258 19.939 39.156 19.939h7.142v12.914c0 26.557-25.901 59.463-55.436 70.422-6.585 2.452-12.155 3.594-17.526 3.594-5.366 0-10.947-1.143-17.563-3.598-29.617-10.989-55.596-43.895-55.596-70.418zm-90.351 102.581c7.31-22.789 26.539-33.659 44.709-34.009 15.77.3 32.349 8.53 41.219 25.589 2.17 4.18 3.89 8.88 5.01 14.13.39 1.79.71 3.65.95 5.57-2.13-1.06-3.72-2.43-5.25-3.95-.45-.44-.9-.89-1.36-1.36-3.22-3.28-7.34-7.49-14.45-7.86-3.121-.189-6.217.457-9.216 1.256-3.004.8-5.988 1.675-8.997 2.459-3.198.834-6.478 1.783-9.811 1.338-4.765-.636-9.455-2.257-14.091-3.479-4.979-1.313-9.974-2.394-14.994-.633-3.845 1.349-6.803 4.071-9.601 6.929-2 2.04-3.85 3.93-6.59 5.3.302-2.421.887-6.565 2.472-11.28zm-3.06 27.299c9.49-2.26 14.43-7.28 17.9-10.83 1.122-1.148 2.434-2.891 4.072-3.326 1.667-.443 3.735.451 5.312.867 4.513 1.19 9.005 2.528 13.574 3.486 3.697.776 7.398 1.021 11.149.478 4.372-.633 8.647-1.952 12.908-3.085 1.338-.356 2.677-.71 4.016-1.061 1.17-.306 2.397-.739 3.615-.78 2.156-.071 3.711 2.026 5.071 3.42 3.48 3.54 8.42 8.57 17.92 10.83v10.48c0 17.07-17.42 39.079-36.559 46.169-3.39 1.26-6.37 2-9.28 2.22-4.21.34-8.27-.4-13.18-2.23-.53-.2-1.05-.4-1.58-.62-18.48-7.67-34.939-28.929-34.939-45.539v-10.479zm72.019 78.638l-20.57 12.08c-.09.06-.19.11-.28.17-.01.01-.02.01-.03.02-3.31 2.14-3.45 2.14-6.82-.03-.09-.05-.17-.1-.26-.16l-12.64-7.42-7.93-4.65c3.06-2.39 5.11-5.55 6.54-8.45.42.17.84.35 1.27.51.56.21 1.12.41 1.67.6 5.19 1.77 9.98 2.66 14.78 2.66h.01c5.3 0 10.6-1.09 16.44-3.26.43-.16.85-.34 1.28-.51 1.43 2.9 3.48 6.06 6.54 8.44zM71.026 254.215v-14.05c11.95-2.5 18.02-8.7 22.25-13.03 4.29-4.38 5.32-5.42 10.36-4.11 3.45.88 6.38 1.66 8.92 2.34 8.48 2.26 13.15 3.51 18.23 3.51s9.75-1.25 18.23-3.51c2.53-.68 5.46-1.46 8.92-2.35 5.02-1.29 6.04-.26 10.32 4.12 4.24 4.32 10.32 10.53 22.289 13.03v14.05c0 21.73-21.279 48.699-45.529 57.709-5.37 2-9.9 2.92-14.23 2.92-4.36 0-8.89-.92-14.26-2.91-24.24-9.021-45.5-35.99-45.5-57.719zm93.048 78.048l-27.849 18.86c-.09.06-.18.13-.27.19-4.83 3.6-5.51 3.6-10.34 0-.09-.06-.18-.13-.28-.19l-27.839-18.86c2.65-3.09 4.5-6.61 5.87-9.79 2.6 1.34 5.25 2.52 7.94 3.52 7.1 2.63 13.29 3.85 19.48 3.85 6.17 0 12.35-1.22 19.45-3.85 2.7-1.01 5.35-2.19 7.96-3.52 1.368 3.17 3.218 6.7 5.878 9.79zm14.45 126.617H77.316v-31.869c0-4.14-3.36-7.5-7.5-7.5s-7.5 3.36-7.5 7.5v31.869H18.408l8.66-67.219c1.66-12.87 5.49-22.039 10.99-28.869.42-.38.78-.81 1.11-1.29 10.25-11.7 25.779-16.13 43.709-21.02l33.919 22.97c5.03 3.72 9.51 5.57 13.99 5.57s8.96-1.85 13.99-5.57l33.909-22.97c5.88 1.61 11.52 3.17 16.89 5.02-.93 5.1-1.42 10.45-1.42 16.04v16.91c0 18.67 13.56 40.029 31.819 52.599-.89 1.94-2.01 3.77-3.36 4.15-1.19.32-2.39.64-3.6.97-1.86.49-3.77 1-5.73 1.55-.12.04-.25.07-.37.11-12.571 3.559-26.52 8.759-34.39 21.049zm148.057 35.629H187.234v-11.56c0-18.27 9.98-24.619 26.889-29.809l27.859 16.36c1.39 1.73 3.54 3.21 6.8 3.92 2.83 1.38 5.49 2.07 8.14 2.07 2.33 0 4.67-.54 7.12-1.61 1.39-.6 2.81-1.38 4.28-2.33l21.58-12.67 9.81-5.76c5.53 1.67 10.33 3.46 14.27 5.76 5.87 3.41 9.86 7.96 11.61 15 .65 2.65.99 5.65.99 9.07v11.559z"></path>
    <path d="M117.013 294.583c3.996 4 9.304 6.202 14.95 6.202h.028a20.928 20.928 0 0014.916-6.215 7.5 7.5 0 00-10.639-10.574 6.028 6.028 0 01-4.297 1.79h-.008a6.096 6.096 0 01-4.339-1.804 7.5 7.5 0 00-10.606-.005 7.5 7.5 0 00-.005 10.606zm-19.945-37.92c1.545-1.497 4.154-1.497 5.699 0a7.473 7.473 0 005.218 2.114 7.5 7.5 0 005.221-12.886c-7.327-7.1-19.249-7.1-26.576 0a7.499 7.499 0 00-.166 10.605 7.497 7.497 0 0010.604.167zm64.099.001c1.541-1.495 4.131-1.502 5.654-.017a7.475 7.475 0 005.236 2.13 7.5 7.5 0 005.237-12.87c-7.305-7.124-19.222-7.131-26.565-.017a7.5 7.5 0 00-.167 10.605 7.499 7.499 0 0010.605.169zm25.217-175.036l51.233 50.823c.208.207.428.4.658.581l.577.453c2.145 1.692 4.364 3.442 7.726 3.538a7.707 7.707 0 00.436 0c3.331-.098 5.541-1.842 7.679-3.528l.589-.463c.23-.181.45-.375.658-.581l51.233-50.823a6.4 6.4 0 00.115-.118c17.954-18.603 17.956-48.897-.001-67.538-15.396-15.944-41.282-15.182-60.495 1.657-19.244-16.833-45.138-17.592-60.528-1.651-17.951 18.634-17.949 48.928.005 67.531.038.041.077.08.115.119zm10.677-57.236c11.183-11.583 29.118-7.133 40.292 2.915a99.193 99.193 0 011.864 1.744c1.902 1.815 4.058 3.872 7.576 3.872 3.502 0 5.604-2.004 7.459-3.773.514-.49 1.148-1.095 1.962-1.826 11.177-10.069 29.094-14.519 40.276-2.938 12.401 12.873 12.421 33.784.058 46.654l-49.77 49.372-49.77-49.372c-12.363-12.87-12.342-33.782.053-46.648z"></path>
  </symbol>
  <symbol xmlns="http://www.w3.org/2000/svg" viewBox="0 0 512 512" id="crowd">
    <path d="M432.234 388.82h-.236c-5.522 0-10 4.478-10 10s4.478 10 10 10h.236c5.522 0 10-4.478 10-10s-4.477-10-10-10z"></path>
    <path d="M511.999 398.798V387.89c0-24.602-15.375-45.666-37.015-54.129 6.793-7.986 10.91-18.341 10.91-29.651 0-25.184-20.364-45.672-45.395-45.672-.145 0-.287.01-.431.011-6.659-9.589-15.928-16.842-26.524-20.975 6.758-7.977 10.851-18.305 10.851-29.582 0-25.184-20.364-45.672-45.396-45.672-.144 0-.285.01-.429.011-6.659-9.591-15.929-16.845-26.526-20.978 6.758-7.977 10.851-18.305 10.851-29.583C362.896 86.488 342.531 66 317.5 66s-45.396 20.488-45.396 45.671c0 11.278 4.093 21.607 10.851 29.583-10.599 4.133-19.867 11.387-26.527 20.978-.143-.001-.285-.011-.428-.011-.144 0-.286.01-.429.011-6.66-9.591-15.929-16.845-26.527-20.978 6.758-7.977 10.851-18.305 10.851-29.583C239.894 86.488 219.531 66 194.5 66c-25.032 0-45.397 20.488-45.397 45.671 0 11.278 4.093 21.607 10.851 29.583-10.598 4.133-19.867 11.387-26.526 20.978-.143-.001-.285-.011-.428-.011-25.031 0-45.396 20.488-45.396 45.672 0 11.277 4.093 21.605 10.851 29.582-10.597 4.133-19.866 11.385-26.525 20.975-.144-.001-.286-.011-.43-.011-25.031 0-45.396 20.488-45.396 45.672 0 11.31 4.117 21.665 10.911 29.651C15.375 342.225 0 363.289 0 387.891V436c0 5.522 4.477 10 10 10h491.999c5.523 0 10-4.478 10-10v-37.162l.001-.02-.001-.02zM440.5 278.438c14.003.001 25.395 11.517 25.395 25.672 0 14.155-11.392 25.671-25.395 25.671-14.004 0-25.397-11.516-25.397-25.671s11.393-25.672 25.397-25.672zM379 182.221c14.003 0 25.396 11.516 25.396 25.672 0 14.155-11.393 25.671-25.396 25.671s-25.396-11.516-25.396-25.671 11.393-25.672 25.396-25.672zM317.5 86c14.003 0 25.396 11.516 25.396 25.671s-11.393 25.672-25.396 25.672-25.396-11.517-25.396-25.672C292.104 97.516 303.497 86 317.5 86zm-13.764 71.343h27.526c9.786 0 19.007 3.867 25.927 10.508-14.044 7.774-23.585 22.807-23.585 40.042 0 11.277 4.093 21.605 10.851 29.582-10.598 4.133-19.865 11.385-26.524 20.975-.144-.001-.286-.011-.431-.011-.145 0-.287.01-.432.011-6.659-9.589-15.927-16.842-26.524-20.975 6.758-7.977 10.851-18.305 10.851-29.582 0-17.235-9.541-32.268-23.586-40.042 6.92-6.641 16.141-10.508 25.927-10.508zm39.16 146.767c0 14.155-11.393 25.671-25.396 25.671-14.004 0-25.397-11.515-25.397-25.671 0-14.155 11.393-25.672 25.397-25.672 14.003 0 25.396 11.517 25.396 25.672zM256 182.221c14.003 0 25.395 11.517 25.395 25.672 0 14.155-11.393 25.671-25.395 25.671-14.003 0-25.396-11.516-25.396-25.671 0-14.156 11.393-25.672 25.396-25.672zM194.5 86c14.002 0 25.394 11.516 25.394 25.671s-11.392 25.672-25.394 25.672c-14.003 0-25.397-11.517-25.397-25.672C169.103 97.516 180.497 86 194.5 86zm-13.764 71.343h27.526c9.786 0 19.007 3.867 25.927 10.509-14.045 7.773-23.585 22.806-23.585 40.041 0 11.277 4.093 21.605 10.851 29.582-10.597 4.133-19.866 11.385-26.525 20.975-.144-.001-.286-.011-.43-.011-.145 0-.286.01-.43.011-6.659-9.59-15.928-16.842-26.525-20.975 6.758-7.977 10.851-18.305 10.851-29.582 0-17.235-9.541-32.268-23.585-40.042 6.918-6.641 16.14-10.508 25.925-10.508zm39.158 146.767c0 14.155-11.392 25.671-25.394 25.671-14.003 0-25.397-11.515-25.397-25.671 0-14.155 11.393-25.672 25.397-25.672 14.002 0 25.394 11.517 25.394 25.672zM133 182.221c14.003 0 25.395 11.517 25.395 25.672 0 14.155-11.393 25.671-25.395 25.671-14.003 0-25.396-11.516-25.396-25.671 0-14.156 11.393-25.672 25.396-25.672zm-61.5 96.218c14.003 0 25.395 11.517 25.395 25.672 0 14.155-11.393 25.671-25.395 25.671-14.003 0-25.396-11.516-25.396-25.671 0-14.156 11.393-25.672 25.396-25.672zM122.999 426H20v-17.182h31.035c5.523 0 10-4.477 10-10 0-5.522-4.477-10-10-10H20v-.928c0-21.014 17.096-38.109 38.109-38.109H84.89c21.014 0 38.109 17.096 38.109 38.109V426zm9.999-70.664a58.419 58.419 0 00-27.015-21.574c6.794-7.986 10.911-18.341 10.911-29.651 0-17.234-9.54-32.266-23.584-40.041 6.921-6.64 16.141-10.506 25.926-10.506h27.526c9.786 0 19.006 3.866 25.925 10.506-14.044 7.774-23.585 22.807-23.585 40.041 0 11.31 4.117 21.666 10.911 29.651a58.419 58.419 0 00-27.015 21.574zM245.999 426H143v-38.109c0-21.014 17.096-38.109 38.109-38.109h26.781c21.014 0 38.109 17.096 38.109 38.109V426zM256 355.336a58.415 58.415 0 00-27.016-21.574c6.793-7.986 10.91-18.341 10.91-29.651 0-17.234-9.539-32.266-23.583-40.04 6.92-6.641 16.14-10.507 25.925-10.507h27.526c9.785 0 19.005 3.866 25.925 10.507-14.044 7.774-23.584 22.806-23.584 40.04 0 11.31 4.117 21.665 10.911 29.651A58.41 58.41 0 00256 355.336zM368.999 426H266v-38.109c0-21.014 17.096-38.109 38.108-38.109h26.782c21.014 0 38.109 17.096 38.109 38.109V426zm10-70.665a58.414 58.414 0 00-27.015-21.574c6.793-7.986 10.91-18.341 10.91-29.651 0-17.234-9.54-32.266-23.584-40.041 6.92-6.64 16.14-10.506 25.925-10.506h27.526c9.785 0 19.006 3.866 25.925 10.506-14.041 7.776-23.583 22.807-23.583 40.041 0 11.31 4.117 21.665 10.911 29.651a58.419 58.419 0 00-27.015 21.574zm112.999 33.484h-31.034c-5.522 0-10 4.478-10 10 0 5.523 4.478 10 10 10h31.034V426H389v-38.109c0-21.014 17.096-38.109 38.109-38.109h26.781c21.013 0 38.108 17.096 38.108 38.109v.928z"></path>
    <path d="M80.001 388.82h-.235c-5.523 0-10 4.478-10 10s4.477 10 10 10h.235c5.523 0 10-4.478 10-10s-4.477-10-10-10z"></path>
  </symbol>
  <symbol xmlns="http://www.w3.org/2000/svg" viewBox="0 0 300 300" id="bible">
    <path d="M241.946 110V88.819l-3.272-.605c-49.201-9.101-79.576 11.97-88.675 19.598-9.103-7.626-39.497-28.694-88.726-19.598L58 88.819V110H38v144h224V110zm-8-14.481v123.886c-12.645-.621-49.676-.596-79.946 17.868v-122.33c2.615-2.3 9.627-7.916 20.607-12.717 12.487-5.46 32.748-10.919 59.339-6.707zM66 95.519c46.169-7.31 74.15 14.329 80 19.432v122.324c-25.627-15.622-56.097-18.045-72.532-18.045-2.992 0-5.52.081-7.468.176zM46 118h12v105.691l.002 4.422 4.4-.443c.491-.048 48.018-4.513 82.396 18.329H46zm208 128h-98.8c34.356-22.841 81.856-18.379 82.342-18.329l4.405.448V118H254zM207.171 68.829c.782.78 1.805 1.171 2.829 1.171s2.047-.391 2.829-1.171a4 4 0 000-5.657l-12-12a4 4 0 00-5.657 5.657zM242 70a3.994 3.994 0 002.829-1.171l12-12a4 4 0 00-5.657-5.657l-12 12A4 4 0 00242 70zm-16 0a4 4 0 004-4V50a4 4 0 00-8 0v16a4 4 0 004 4z"></path>
    <path d="M89.504 149.989L102 151.551V190a4 4 0 008 0v-37.449l11.504 1.438a4 4 0 00.992-7.938L110 144.488V134a4 4 0 00-8 0v9.488l-11.504-1.438a4 4 0 00-.992 7.939z"></path>
  </symbol>
  <symbol xmlns="http://www.w3.org/2000/svg" viewBox="0 0 480.003 480.003" id="lider">
    <path d="M120.002 16.003c-3.992 0-8.008.536-12 1.6-11.856-11.24-27.616-17.6-44-17.6-35.288 0-64 28.712-64 64 0 4.424 3.576 8 8 8h152c4.424 0 8-3.576 8-8 0-26.472-21.528-48-48-48zM16.666 56.011v-.008c3.824-22.672 23.592-40 47.336-40 13.592 0 26.632 5.856 35.768 16.072a7.998 7.998 0 008.824 2.144c19.088-7.32 37.944 4.528 42.4 21.792H16.666zm103.336 31.992h16v16h-16zm32 0h16v16h-16zm32 0h16v16h-16z"></path>
    <path d="M376.002 237.555a23.913 23.913 0 00-20.056-23.672l-26.48-4.416 5.088-25.464h65.448v48h16V76.947l59.576-29.792c2.712-1.352 4.424-4.12 4.424-7.152s-1.712-5.8-4.424-7.16l-64-32c-2.488-1.232-5.432-1.112-7.784.352s-3.792 4.032-3.792 6.808v128h-60.32c7.632-8.504 12.32-19.696 12.32-32 0-26.472-21.528-48-48-48s-48 21.528-48 48c0 14.368 6.376 27.248 16.408 36.048l-68.92 61.264-44.744 22.368-22.944-3.824c9.912-8.8 16.2-21.592 16.2-35.856 0-26.472-21.528-48-48-48s-48 21.528-48 48c0 14.6 6.576 27.68 16.896 36.488-.112.224-.272.4-.36.632l-24.8 64.48c-4.536 11.816-3.312 24.752 3.368 35.496 1.272 2.048 2.752 3.896 4.32 5.648L33.65 363.043 2.346 394.347a7.991 7.991 0 000 11.312l24 24c1.56 1.56 3.608 2.344 5.656 2.344s4.096-.784 5.656-2.344l40-40a7.999 7.999 0 001-1.216l30.728-46.096 10.616.96v32.696h-8c-4.424 0-8 3.576-8 8v57.632l-97.8 22.568a8.002 8.002 0 00-6.2 7.8v8h16v-1.632l97.8-22.568a8.002 8.002 0 006.2-7.8v-56h120c2.264 0 4.432-.96 5.944-2.648l69.616-77.352h164.44v-16h-104v-58.448zm40-216.608l38.112 19.056-38.112 19.056V20.947zm-144 83.056c0-17.648 14.352-32 32-32s32 14.352 32 32-14.352 32-32 32-32-14.352-32-32zm-11.28 67.84l-12.168 31.632-22.6 17.04-7.44-11.16 42.208-37.512zm-188.72 12.16c0-17.648 14.352-32 32-32s32 14.352 32 32-14.352 32-32 32-32-14.352-32-32zm-6.216 194.904l-33.784 33.784-12.688-12.688 26.344-26.344a7.947 7.947 0 001.2-1.536l21.48-35.8a40.253 40.253 0 0013.104 3.488l9.808.888-25.464 38.208zm94.216-2.904h-24v-40a8 8 0 00-7.272-7.968l-45.832-4.168c-7.56-.688-14.192-4.776-18.208-11.224-4.008-6.448-4.744-14.2-2.016-21.288l22.824-59.352h25.84l47.352 7.888a8.044 8.044 0 004.888-.736l41.68-20.84 7.328 10.992-46.712 26.696h-37.872a8 8 0 00-7.76 6.064l-8 32a7.94 7.94 0 001.072 6.32 7.957 7.957 0 005.376 3.504l34.632 5.776a7.97 7.97 0 016.68 7.888v58.448zm160-80h-8c-2.264 0-4.432.96-5.944 2.648l-69.616 77.352h-60.44v-58.448a23.913 23.913 0 00-20.056-23.672l-26.088-4.352 4.392-17.528h33.752c1.392 0 2.76-.368 3.968-1.056l56-32c.12-.072.192-.2.312-.272.168-.112.368-.16.536-.28l16.712-12.6c.792 5.336 2.616 10.536 5.576 15.304 1.272 2.048 2.752 3.896 4.32 5.648l-21.776 36.296-31.304 31.304a7.991 7.991 0 000 11.312l24 24a7.978 7.978 0 005.656 2.344 7.978 7.978 0 005.656-2.344l40-40a7.999 7.999 0 001-1.216l30.728-46.096 10.616.96v32.696zm-51.664-39.68a40.253 40.253 0 0013.104 3.488l9.808.888-25.472 38.208-33.776 33.784-12.688-12.688 26.344-26.344a7.947 7.947 0 001.2-1.536l21.48-35.8zm91.664 39.68h-24v-40a8 8 0 00-7.272-7.968l-45.832-4.168c-7.56-.688-14.192-4.776-18.208-11.224-4.008-6.448-4.744-14.2-2.016-21.288l22.824-59.352h114.504v16h-72a7.994 7.994 0 00-7.84 6.432l-8 40a8.051 8.051 0 001.256 6.12 8.019 8.019 0 005.272 3.344l34.632 5.776a7.956 7.956 0 016.68 7.88v58.448z"></path>
  </symbol>
  <symbol xmlns="http://www.w3.org/2000/svg" viewBox="0 -6 512.001 512" id="unido">
    <path d="M210.36 447.887l-1.505 7.347 1.45-7.355a7.498 7.498 0 10-2.898 14.715c.011.004.124.023.136.027.477.09.95.137 1.418.137 3.527 0 6.672-2.5 7.355-6.094.782-4.07-1.886-8-5.957-8.777zm57.343 2.41l.746 7.46-.77-7.456a7.494 7.494 0 00-6.69 8.226 7.498 7.498 0 008.226 6.696l.207-.024c4.101-.48 7.012-4.18 6.555-8.281-.461-4.098-4.172-7.05-8.274-6.621zm-28.711.945l-.11-.004c-4.132-.187-7.585 3.024-7.773 7.16-.183 4.137 3.067 7.641 7.203 7.829a7.496 7.496 0 007.832-7.152 7.499 7.499 0 00-7.152-7.833zm-56.336-10.976l-.094-.036c-3.898-1.398-8.148.641-9.546 4.54-1.403 3.898.668 8.21 4.566 9.613a7.503 7.503 0 009.594-4.524 7.495 7.495 0 00-4.52-9.593zm113.352 4.781l1.847 7.27-1.87-7.262a7.5 7.5 0 001.863 14.765c.62 0 1.25-.078 1.879-.242.03-.008.164-.043.199-.05 3.98-1.087 6.308-5.176 5.246-9.165-1.063-3.984-5.168-6.355-9.164-5.316zm27.113-9.457l2.973 6.883-2.996-6.875a7.504 7.504 0 00-3.883 9.87 7.504 7.504 0 006.883 4.509 7.53 7.53 0 002.988-.625c.031-.016.152-.067.184-.082 3.761-1.7 5.421-6.106 3.742-9.875-1.68-3.774-6.11-5.465-9.89-3.805zM154.008 93.7c1.203 0 2.426-.29 3.554-.891a7.5 7.5 0 003.086-10.149 7.495 7.495 0 00-10.144-3.086l-.09.047c-3.652 1.95-4.992 6.469-3.043 10.125 1.344 2.524 3.953 3.953 6.637 3.953zm-86.754 83.769a7.496 7.496 0 0010.129-3.16l.133-.262a7.496 7.496 0 00-3.422-10.04 7.494 7.494 0 00-10.004 3.348 7.5 7.5 0 003.164 10.114zm-10.559 28.215c.797.27 1.606.398 2.407.398a7.505 7.505 0 007.101-5.098l.098-.297a7.495 7.495 0 00-4.965-9.37 7.5 7.5 0 00-9.348 4.874 7.5 7.5 0 004.707 9.493zM82.05 151.23a7.493 7.493 0 0010.477-1.652l.098-.133c2.406-3.367 1.621-8.039-1.738-10.445a7.508 7.508 0 00-10.465 1.723l6.043 4.445-6.067-4.414a7.5 7.5 0 001.653 10.476zm46.497-41.332c1.574 0 3.16-.496 4.516-1.527 3.343-2.445 4.066-7.137 1.62-10.48a7.499 7.499 0 00-10.48-1.621l-.187.136c-3.297 2.504-3.954 7.219-1.45 10.52a7.493 7.493 0 005.98 2.972zM50 319.426a7.49 7.49 0 007.156 5.289c.73 0 1.477-.11 2.211-.336 3.938-1.207 6.16-5.379 4.98-9.324a7.498 7.498 0 00-9.183-5.168 7.502 7.502 0 00-5.262 9.21l.098.329zm55.89-189.762c1.95 0 3.9-.754 5.372-2.254 2.925-2.93 2.925-7.68 0-10.605a7.502 7.502 0 00-10.61 0l-.125.125c-2.898 2.957-2.84 7.699.118 10.597a7.46 7.46 0 005.246 2.137zm-47.6 157.063c-.528-4.075-4.25-6.965-8.33-6.48a7.505 7.505 0 00-6.558 8.335l.043.3a7.488 7.488 0 008.504 6.317c4.082-.594 6.914-4.39 6.34-8.472zm-9.423-21.481c.078 0 .153.004.227.004a7.5 7.5 0 007.492-7.281l.008-.32a7.5 7.5 0 00-7.5-7.5 7.497 7.497 0 00-7.5 7.402 7.498 7.498 0 007.273 7.695zm1.645-30.078a7.507 7.507 0 008.707-6.063c.02-.109.035-.218.05-.328a7.495 7.495 0 00-6.328-8.511c-4.05-.602-7.843 2.183-8.496 6.222-.71 4.07 2 7.95 6.067 8.68zm353.788-81.57a7.47 7.47 0 006.173 3.238c1.464 0 2.949-.43 4.246-1.324 3.41-2.344 4.273-7.016 1.93-10.43l-6.235 4.172 6.211-4.207a7.5 7.5 0 10-12.418 8.418zm38.302 75.472a7.497 7.497 0 00-6.614 8.293l.04.325a7.505 7.505 0 008.488 6.363 7.503 7.503 0 006.375-8.39c-.473-4.106-4.2-7.052-8.29-6.59zm-12.657-21.164l.032.098a7.5 7.5 0 007.191 5.387c.7 0 1.41-.098 2.117-.309a7.5 7.5 0 005.082-9.312l-.031-.098a7.494 7.494 0 00-9.313-5.078 7.5 7.5 0 00-5.078 9.312zm-10.593-28.043a7.54 7.54 0 006.765 4.211c1.106 0 2.23-.246 3.29-.77 3.714-1.827 5.257-6.296 3.425-10.015l-6.797 3.168 6.79-3.184a7.498 7.498 0 00-9.973-3.605 7.5 7.5 0 00-3.61 9.973zm-33.942-49.687a7.467 7.467 0 005.356 2.25 7.467 7.467 0 005.25-2.145 7.495 7.495 0 00.171-10.535 7.499 7.499 0 00-11.003 10.192zm59.63 130.211c-4.122-.106-7.571 3.125-7.716 7.246a7.502 7.502 0 007.5 7.844 7.5 7.5 0 007.48-7.086l.012-.309c.118-4.137-3.14-7.574-7.277-7.695zM337.45 93.348l.179.097a7.432 7.432 0 003.496.875 7.5 7.5 0 006.605-3.957c1.954-3.636.579-8.183-3.046-10.152l-3.63 6.562 3.606-6.578a7.501 7.501 0 00-10.183 2.973 7.5 7.5 0 002.972 10.18zm25.366 16.449l.118.09a7.466 7.466 0 004.527 1.523A7.502 7.502 0 00372 97.933l-.052-.035a7.498 7.498 0 00-10.515 1.38 7.504 7.504 0 001.382 10.519zm0 0"></path>
    <path d="M507.371 373.93l-35.207-35.27a15.742 15.742 0 00-11.215-4.652 15.733 15.733 0 00-11.21 4.652l-.817.817-2.313-2.313a30.272 30.272 0 01-6.566-9.824 7.309 7.309 0 00-.535-1.39 30.33 30.33 0 01-1.746-10.188v-9.977a7.489 7.489 0 003.508.867 7.5 7.5 0 007.367-6.148 7.5 7.5 0 00-10.922-8.05c-.461-10.657-4.817-20.61-12.395-28.204l-34.156-34.215c-7.664-7.676-17.855-11.902-28.695-11.902-8.39 0-16.383 2.543-23.125 7.25l-3.625-3.645v-85.781a42.588 42.588 0 00-10.567-28.086 30.266 30.266 0 01-7.515-19.976v-6.286h.515c8.743 0 15.856-7.113 15.856-15.859V15.86c0-8.747-7.113-15.86-15.856-15.86H178.055c-8.742 0-15.856 7.113-15.856 15.86v49.89c0 8.746 7.114 15.86 15.856 15.86h1.156v3.288c0 8.086-3.145 15.688-8.852 21.403l-15.12 15.148c-8.024 8.04-12.442 18.723-12.442 30.09v48.387a40.44 40.44 0 004.355 18.281c-9.945.574-19.214 4.719-26.316 11.828L86.68 264.25c-8.024 8.04-12.442 18.727-12.442 30.09v21.422c0 8.086-3.14 15.687-8.847 21.402l-2.286 2.29a.125.125 0 00-.027.023l-.812-.817a15.742 15.742 0 00-11.215-4.652 15.733 15.733 0 00-11.211 4.652L4.629 373.93c-6.172 6.183-6.172 16.246 0 22.43l12.059 12.074a7.497 7.497 0 0010.605.011 7.502 7.502 0 00.008-10.61l-12.055-12.077a.87.87 0 010-1.23l35.211-35.27a.84.84 0 011.191 0l6.122 6.133h.003l83.582 83.726 9.364 9.383c.34.34.34.89 0 1.23L115.512 485a.842.842 0 01-1.196 0l-65.78-65.895a7.497 7.497 0 00-10.606-.011 7.502 7.502 0 00-.012 10.61l65.785 65.894c2.992 3 6.977 4.652 11.215 4.652a15.74 15.74 0 0011.21-4.652l35.208-35.27c6.172-6.18 6.172-16.242 0-22.426l-.383-.382 4.442-4.45a30.137 30.137 0 0119.402-8.797 42.439 42.439 0 0027.308-12.382l32.344-32.414c9.328-2.45 16.59-10.047 18.563-19.563a25.437 25.437 0 0010.96 2.473c14.106 0 25.583-11.489 25.583-25.614v-17.808a25.421 25.421 0 0010.582 2.3c14.105 0 25.578-11.488 25.578-25.613v-52.648l23.07 23.183a7.473 7.473 0 005.317 2.208 7.48 7.48 0 005.293-2.184 7.5 7.5 0 00.023-10.606l-19.234-19.328a25.374 25.374 0 0112.285-3.144c6.828 0 13.25 2.664 18.078 7.504l34.156 34.21c5.195 5.208 8.059 12.13 8.059 19.493v21.422c0 12.09 4.699 23.453 13.23 32l2.328 2.332-10.879 10.898-65.796 65.91-3.668-3.675c-.04-.036-.075-.075-.114-.11l-.644-.648a45.157 45.157 0 00-29.043-13.164 27.503 27.503 0 01-17.688-8.028l-24.644-24.511a7.502 7.502 0 00-10.61.027c-2.918 2.937-2.906 7.687.032 10.605l24.629 24.493a42.44 42.44 0 0027.312 12.382 30.151 30.151 0 0119.398 8.793l.364.364c.195.222.402.43.62.625l3.458 3.46-.383.387c-6.172 6.184-6.172 16.243 0 22.426l35.207 35.27c2.996 3 6.977 4.652 11.215 4.652a15.75 15.75 0 0011.215-4.652l99.07-99.243c6.172-6.183 6.172-16.242 0-22.425zm-64.582-74.578l-.14-.024-1.368-.277zm-241.3 101.941a27.45 27.45 0 01-17.66 8.012 45.158 45.158 0 00-29.048 13.164l-4.426 4.433-3.984-3.992c-.05-.05-.101-.105-.152-.152l-72.54-72.664 2.329-2.332c8.531-8.547 13.23-19.91 13.23-32V294.34c0-7.363 2.86-14.285 8.059-19.492l34.156-34.211c4.828-4.84 11.25-7.504 18.078-7.504 4.38 0 8.59 1.101 12.324 3.168l-19.265 19.297a7.5 7.5 0 00.008 10.605 7.483 7.483 0 005.3 2.192 7.486 7.486 0 005.309-2.2l23.012-23.054v93.632c0 14.125 11.476 25.614 25.582 25.614a25.41 25.41 0 0011.101-2.54c1.524 7.434 6.274 13.7 12.711 17.27zm119.23-105.637c0 5.852-4.75 10.614-10.582 10.614-5.836 0-10.582-4.762-10.582-10.614v-83.66a7.5 7.5 0 00-7.5-7.5 7.5 7.5 0 00-7.5 7.5v124.781c0 5.852-4.746 10.61-10.582 10.61-5.239 0-9.586-3.836-10.426-8.856v-126.62a7.497 7.497 0 00-11.172-6.54 7.497 7.497 0 00-3.984 6.625v124.777c0 .954.054 1.887.156 2.813v15.113c0 5.852-4.746 10.613-10.582 10.613-5.832 0-10.578-4.761-10.578-10.613V211.82a7.502 7.502 0 00-15.004 0v124.953c0 5.852-4.746 10.614-10.578 10.614-5.836 0-10.582-4.762-10.582-10.614V197.262a7.5 7.5 0 10-15 0v25.804a7.363 7.363 0 00-1.805.864c-9.7-3.645-16.621-13.028-16.621-24.004v-48.387c0-7.363 2.863-14.285 8.058-19.492l15.122-15.149c8.535-8.546 13.234-19.91 13.234-32V81.61h15.078a7.5 7.5 0 007.5-7.5c0-4.144-3.355-7.5-7.5-7.5h-31.234a.859.859 0 01-.856-.859V15.86a.86.86 0 01.856-.86h140.093a.86.86 0 01.86.86v49.89c0 .477-.383.86-.86.86H244.5a7.5 7.5 0 100 15h58.137v6.285c0 11 3.988 21.605 11.234 29.87a27.574 27.574 0 016.848 18.192zm176.035 90.102L397.684 485a.802.802 0 01-.598.25.815.815 0 01-.598-.25l-35.207-35.27a.87.87 0 010-1.23l5.668-5.68.004-.004 57.512-57.609 35.887-35.95a.837.837 0 011.191 0l35.21 35.27a.87.87 0 010 1.23zm0 0"></path>
    <path d="M201.8 32.805c-4.402 0-7.984 3.59-7.984 8 0 4.414 3.582 8 7.985 8 4.406 0 7.988-3.586 7.988-8 0-4.41-3.582-8-7.988-8zm261.602 341.883c-4.406 0-7.988 3.59-7.988 8s3.582 8 7.988 8c4.403 0 7.985-3.59 7.985-8s-3.582-8-7.985-8zm-338.418 76.515c0-4.41-3.582-8-7.984-8-4.406 0-7.988 3.59-7.988 8s3.582 8 7.988 8c4.402 0 7.984-3.59 7.984-8zm0 0"></path>
  </symbol>
  <symbol xmlns="http://www.w3.org/2000/svg" viewBox="0 0 512 512" id="building">
    <path d="M366.933 477.867H128a8.536 8.536 0 00-8.533 8.533v17.067c0 4.71 3.823 8.533 8.533 8.533s8.533-3.823 8.533-8.533v-8.533h230.4c4.71 0 8.533-3.823 8.533-8.533s-3.822-8.534-8.533-8.534zm-179.2-264.534a8.536 8.536 0 008.533 8.533H230.4a8.536 8.536 0 008.533-8.533v-51.2a8.536 8.536 0 00-8.533-8.533h-34.133a8.536 8.536 0 00-8.533 8.533v51.2zm17.067-42.666h17.067V204.8H204.8v-34.133zM110.933 102.4H8.533A8.536 8.536 0 000 110.933V281.6c0 4.71 3.823 8.533 8.533 8.533s8.533-3.823 8.533-8.533V119.467h93.867c4.71 0 8.533-3.823 8.533-8.533s-3.822-8.534-8.533-8.534zM409.6 418.133a8.536 8.536 0 008.533 8.533h34.133a8.536 8.536 0 008.533-8.533v-51.2a8.536 8.536 0 00-8.533-8.533h-34.133a8.536 8.536 0 00-8.533 8.533v51.2zm17.067-42.666h17.067V409.6h-17.067v-34.133zm-384-68.267C.486 307.2 0 417.024 0 418.133c0 20.608 14.686 37.837 34.133 41.805v43.529A8.536 8.536 0 0042.666 512a8.536 8.536 0 008.533-8.533v-43.529c19.447-3.968 34.133-21.197 34.133-41.805.001-1.109-.485-110.933-42.665-110.933zm0 136.533c-14.114 0-25.6-11.486-25.6-25.6 0-42.513 11.418-93.867 25.6-93.867 14.182 0 25.6 51.354 25.6 93.867 0 14.114-11.486 25.6-25.6 25.6zM93.867 256H59.733a8.536 8.536 0 00-8.533 8.533V281.6c0 4.71 3.823 8.533 8.533 8.533s8.533-3.823 8.533-8.533v-8.533h17.067v42.667a8.536 8.536 0 008.533 8.533 8.536 8.536 0 008.533-8.533v-51.2A8.535 8.535 0 0093.867 256zm324.266-34.133h34.133a8.536 8.536 0 008.533-8.533v-51.2a8.536 8.536 0 00-8.533-8.533h-34.133a8.536 8.536 0 00-8.533 8.533v51.2a8.536 8.536 0 008.533 8.533zm8.534-51.2h17.067V204.8h-17.067v-34.133z"></path>
    <path d="M93.867 153.6H59.733a8.536 8.536 0 00-8.533 8.533v51.2a8.536 8.536 0 008.533 8.533h34.133a8.536 8.536 0 008.533-8.533v-51.2c.001-4.71-3.822-8.533-8.532-8.533zm-8.534 51.2H68.267v-34.133h17.067V204.8zm187.734 8.533a8.536 8.536 0 008.533 8.533h34.133a8.536 8.536 0 008.533-8.533v-51.2a8.536 8.536 0 00-8.533-8.533H281.6a8.536 8.536 0 00-8.533 8.533v51.2zm17.066-42.666H307.2V204.8h-17.067v-34.133zM503.467 102.4h-102.4c-4.71 0-8.533 3.823-8.533 8.533s3.823 8.533 8.533 8.533h93.867V462.37c-2.679-.956-5.521-1.57-8.533-1.57-1.476 0-2.944.128-4.386.384-5.888-10.607-17.092-17.451-29.747-17.451-12.655 0-23.859 6.844-29.747 17.451a25.094 25.094 0 00-4.386-.384c-14.114 0-25.6 11.486-25.6 25.6s11.486 25.6 25.6 25.6H486.4c14.114 0 25.6-11.486 25.6-25.6V110.933a8.536 8.536 0 00-8.533-8.533zM486.4 494.933h-68.267c-4.702 0-8.533-3.831-8.533-8.533s3.831-8.533 8.533-8.533c1.638 0 3.191.469 4.625 1.391a8.558 8.558 0 007.834.734 8.51 8.51 0 005.103-5.982c1.801-7.774 8.619-13.21 16.572-13.21 7.953 0 14.771 5.436 16.572 13.21a8.51 8.51 0 005.103 5.982 8.56 8.56 0 007.834-.734c5.555-3.584 13.158.802 13.158 7.142-.001 4.702-3.832 8.533-8.534 8.533zM281.6 119.467h34.133a8.536 8.536 0 008.533-8.533v-51.2a8.536 8.536 0 00-8.533-8.533H281.6a8.536 8.536 0 00-8.533 8.533v51.2a8.536 8.536 0 008.533 8.533zm8.533-51.2H307.2V102.4h-17.067V68.267zm-17.066 247.466a8.536 8.536 0 008.533 8.533h34.133a8.536 8.536 0 008.533-8.533v-51.2a8.536 8.536 0 00-8.533-8.533H281.6a8.536 8.536 0 00-8.533 8.533v51.2zm17.066-42.666H307.2V307.2h-17.067v-34.133zm-93.866-153.6H230.4a8.536 8.536 0 008.533-8.533v-51.2a8.536 8.536 0 00-8.533-8.533h-34.133a8.536 8.536 0 00-8.533 8.533v51.2c-.001 4.71 3.822 8.533 8.533 8.533zm8.533-51.2h17.067V102.4H204.8V68.267zm45.141 343.808c-1.536 1.621-2.475 3.84-2.475 6.059 0 2.219.939 4.437 2.475 6.059 1.621 1.536 3.84 2.475 6.059 2.475 2.219 0 4.437-.939 6.059-2.475 1.536-1.621 2.475-3.84 2.475-6.059 0-2.219-.939-4.437-2.475-6.059-3.243-3.158-8.875-3.158-12.118 0zm-62.208-96.342a8.536 8.536 0 008.533 8.533H230.4a8.536 8.536 0 008.533-8.533v-51.2A8.536 8.536 0 00230.4 256h-34.133a8.536 8.536 0 00-8.533 8.533v51.2zm17.067-42.666h17.067V307.2H204.8v-34.133z"></path>
    <path d="M170.667 366.933a8.536 8.536 0 008.533 8.533h25.6v76.8a8.536 8.536 0 008.533 8.533 8.536 8.536 0 008.533-8.533v-76.8h68.267v76.8c0 4.71 3.823 8.533 8.533 8.533s8.533-3.823 8.533-8.533v-76.8h25.6c4.71 0 8.533-3.823 8.533-8.533s-3.823-8.533-8.533-8.533H179.2a8.536 8.536 0 00-8.533 8.533zm238.933-51.2a8.536 8.536 0 008.533 8.533h34.133a8.536 8.536 0 008.533-8.533v-51.2a8.536 8.536 0 00-8.533-8.533h-34.133a8.536 8.536 0 00-8.533 8.533v51.2zm17.067-42.666h17.067V307.2h-17.067v-34.133z"></path>
    <path d="M366.933 0H145.067a8.536 8.536 0 00-8.533 8.533v443.733a8.536 8.536 0 008.533 8.533 8.536 8.536 0 008.533-8.533v-435.2h204.8v435.2c0 4.71 3.823 8.533 8.533 8.533s8.533-3.823 8.533-8.533V8.533c.001-4.71-3.822-8.533-8.533-8.533z"></path>
  </symbol>
  <symbol xmlns="http://www.w3.org/2000/svg" viewBox="0 0 469.333 469.333" id="sender">
    <path d="M426.667 0h-384C19.135 0 0 19.135 0 42.667v384c0 23.531 19.135 42.667 42.667 42.667h384c23.531 0 42.667-19.135 42.667-42.667v-384C469.333 19.135 450.198 0 426.667 0zM448 426.667c0 11.76-9.573 21.333-21.333 21.333h-384c-11.76 0-21.333-9.573-21.333-21.333v-169.79c1.168.145 2.387.098 3.542.29.594.104 1.177.146 1.76.146 5.125 0 9.646-3.698 10.51-8.917.969-5.813-2.958-11.313-8.771-12.271-2.315-.385-4.694-.346-7.042-.579V106.667H448v320zm0-341.334H21.333V42.667c0-11.76 9.573-21.333 21.333-21.333h384c11.76 0 21.333 9.573 21.333 21.333v42.666z"></path>
    <circle cx="53.333" cy="53.333" r="10.667"></circle>
    <circle cx="96" cy="53.333" r="10.667"></circle>
    <circle cx="138.667" cy="53.333" r="10.667"></circle>
    <path d="M154.083 254.208l60.027 40.018 9.993 69.951a10.679 10.679 0 008.448 8.948c.708.135 1.417.208 2.115.208 3.698 0 7.198-1.927 9.146-5.177l26.246-43.742 54.691 36.461a10.695 10.695 0 009.084 1.313 10.7 10.7 0 006.74-6.229l85.333-213.333c1.594-3.979.635-8.542-2.417-11.552s-7.635-3.885-11.594-2.25l-256 106.667a10.653 10.653 0 00-6.51 8.813 10.653 10.653 0 004.698 9.904zm103.542 49.469c-.018.029-.017.061-.034.09-.018.031-.052.046-.07.077l-16.542 27.573-5.466-38.272 49.185-32.79-27.073 43.322zm139.042-145.396l-71.021 177.552-44.448-29.625 47.844-76.552a10.673 10.673 0 00-1.615-13.313c-3.583-3.49-9.167-3.979-13.344-1.219L224 275.177l-41.5-27.667 214.167-89.229zM151.656 424.125a70.65 70.65 0 0018.802 2.542c6.469 0 12.885-.875 19.083-2.615 5.677-1.583 8.99-7.469 7.396-13.146-1.594-5.667-7.49-8.969-13.146-7.396-8.583 2.385-17.865 2.427-26.469.052-5.688-1.563-11.552 1.771-13.115 7.448-1.561 5.678 1.772 11.553 7.449 13.115zm-42.25-65.635c-5.75 1.281-9.375 6.979-8.104 12.729a70.899 70.899 0 0017.833 33.438 10.663 10.663 0 007.729 3.313c2.646 0 5.292-.979 7.354-2.938 4.271-4.063 4.438-10.813.375-15.083a49.334 49.334 0 01-12.458-23.354c-1.27-5.751-6.989-9.272-12.729-8.105zm-57.229-91.823a86.176 86.176 0 0122.583 17.99 10.646 10.646 0 007.948 3.552 10.61 10.61 0 007.115-2.719c4.385-3.938 4.76-10.677.833-15.063A107.301 107.301 0 0062.49 248c-5.177-2.854-11.656-.969-14.49 4.177-2.854 5.156-.979 11.646 4.177 14.49zm37.958 42.416A85.746 85.746 0 0196 331.333l.823 6.594c.677 5.396 5.271 9.344 10.573 9.344.438 0 .885-.031 1.333-.083 5.844-.729 9.99-6.063 9.26-11.906l-.823-6.594a107.038 107.038 0 00-7.323-27.771c-2.25-5.448-8.51-7.99-13.938-5.771-5.436 2.25-8.02 8.5-5.77 13.937zm139.782 66.042c-4.917-3.281-11.531-1.948-14.792 2.958l-3.479 5.208a49.688 49.688 0 01-4.969 6.302c-4.01 4.313-3.76 11.063.552 15.073a10.634 10.634 0 007.26 2.854c2.854 0 5.708-1.146 7.813-3.406a70.453 70.453 0 007.104-9l3.469-5.198c3.271-4.895 1.948-11.52-2.958-14.791z"></path>
  </symbol>
  <symbol xmlns="http://www.w3.org/2000/svg" viewBox="0 0 551.034 551.034" id="instagram">
    <linearGradient id="a" gradientUnits="userSpaceOnUse" x1="275.517" y1="4.57" x2="275.517" y2="549.72" gradientTransform="matrix(1 0 0 -1 0 554)">
      <stop offset="0" stop-color="#e09b3d"></stop>
      <stop offset=".3" stop-color="#c74c4d"></stop>
      <stop offset=".6" stop-color="#c21975"></stop>
      <stop offset="1" stop-color="#7024c4"></stop>
    </linearGradient>
    <path d="M386.878 0H164.156C73.64 0 0 73.64 0 164.156v222.722c0 90.516 73.64 164.156 164.156 164.156h222.722c90.516 0 164.156-73.64 164.156-164.156V164.156C551.033 73.64 477.393 0 386.878 0zM495.6 386.878c0 60.045-48.677 108.722-108.722 108.722H164.156c-60.045 0-108.722-48.677-108.722-108.722V164.156c0-60.046 48.677-108.722 108.722-108.722h222.722c60.045 0 108.722 48.676 108.722 108.722v222.722z" fill="url(#a)"></path>
    <linearGradient id="b" gradientUnits="userSpaceOnUse" x1="275.517" y1="4.57" x2="275.517" y2="549.72" gradientTransform="matrix(1 0 0 -1 0 554)">
      <stop offset="0" stop-color="#e09b3d"></stop>
      <stop offset=".3" stop-color="#c74c4d"></stop>
      <stop offset=".6" stop-color="#c21975"></stop>
      <stop offset="1" stop-color="#7024c4"></stop>
    </linearGradient>
    <path d="M275.517 133C196.933 133 133 196.933 133 275.516s63.933 142.517 142.517 142.517S418.034 354.1 418.034 275.516 354.101 133 275.517 133zm0 229.6c-48.095 0-87.083-38.988-87.083-87.083s38.989-87.083 87.083-87.083c48.095 0 87.083 38.988 87.083 87.083 0 48.094-38.989 87.083-87.083 87.083z" fill="url(#b)"></path>
    <linearGradient id="c" gradientUnits="userSpaceOnUse" x1="418.31" y1="4.57" x2="418.31" y2="549.72" gradientTransform="matrix(1 0 0 -1 0 554)">
      <stop offset="0" stop-color="#e09b3d"></stop>
      <stop offset=".3" stop-color="#c74c4d"></stop>
      <stop offset=".6" stop-color="#c21975"></stop>
      <stop offset="1" stop-color="#7024c4"></stop>
    </linearGradient>
    <circle cx="418.31" cy="134.07" r="34.15" fill="url(#c)"></circle>
  </symbol>
  <symbol xmlns="http://www.w3.org/2000/svg" viewBox="0 0 512 512" id="route">
    <path d="M325.478 433H79c-27.019 0-49-21.981-49-49s21.981-49 49-49h96c43.561 0 79-35.439 79-79s-35.439-79-79-79h-52.478c.963 4.854 1.478 9.867 1.478 15s-.515 10.146-1.478 15H175c27.019 0 49 21.981 49 49s-21.981 49-49 49H79c-43.561 0-79 35.439-79 79s35.439 79 79 79h246.478c-.963-4.854-1.478-9.867-1.478-15s.515-10.146 1.478-15zM401 401c-25.916 0-47 21.084-47 47s21.084 47 47 47 47-21.084 47-47-21.084-47-47-47zM143 17H47c-8.284 0-15 6.716-15 15v115.469C13.42 153.745 0 171.329 0 192c0 25.916 21.084 47 47 47s47-21.084 47-47c0-20.671-13.42-38.255-32-44.531V111h81c8.284 0 15-6.716 15-15V32c0-8.284-6.716-15-15-15zm258 32c-61.206 0-111 49.794-111 111 0 33.051 14.399 63.844 39.626 85.015l58.01 113.797c5.556 10.899 21.173 10.898 26.728 0l58.01-113.797C497.601 223.844 512 193.051 512 160c0-61.206-49.794-111-111-111zm0 158c-25.916 0-47-21.084-47-47s21.084-47 47-47 47 21.084 47 47-21.084 47-47 47z"></path>
  </symbol>
  <symbol xmlns="http://www.w3.org/2000/svg" viewBox="0 0 24 24" id="instagram (1)">
    <path d="M12.004 5.838a6.157 6.157 0 00-6.158 6.158 6.157 6.157 0 006.158 6.158 6.157 6.157 0 006.158-6.158 6.157 6.157 0 00-6.158-6.158zm0 10.155a3.996 3.996 0 113.997-3.997 3.995 3.995 0 01-3.997 3.997z"></path>
    <path d="M16.948.076c-2.208-.103-7.677-.098-9.887 0-1.942.091-3.655.56-5.036 1.941C-.283 4.325.012 7.435.012 11.996c0 4.668-.26 7.706 2.013 9.979 2.317 2.316 5.472 2.013 9.979 2.013 4.624 0 6.22.003 7.855-.63 2.223-.863 3.901-2.85 4.065-6.419.104-2.209.098-7.677 0-9.887-.198-4.213-2.459-6.768-6.976-6.976zm3.495 20.372c-1.513 1.513-3.612 1.378-8.468 1.378-5 0-7.005.074-8.468-1.393-1.685-1.677-1.38-4.37-1.38-8.453 0-5.525-.567-9.504 4.978-9.788 1.274-.045 1.649-.06 4.856-.06l.045.03c5.329 0 9.51-.558 9.761 4.986.057 1.265.07 1.645.07 4.847-.001 4.942.093 6.959-1.394 8.453z"></path>
    <circle cx="18.406" cy="5.595" r="1.439"></circle>
  </symbol>
  <symbol xmlns="http://www.w3.org/2000/svg" viewBox="0 0 512 512" id="facebook">
    <path d="M452 0H60C26.916 0 0 26.916 0 60v392c0 33.084 26.916 60 60 60h392c33.084 0 60-26.916 60-60V60c0-33.084-26.916-60-60-60zm20 452c0 11.028-8.972 20-20 20H338V309h61.79L410 247h-72v-43c0-16.975 13.025-30 30-30h41v-62h-41c-50.923 0-91.978 41.25-91.978 92.174V247H216v62h60.022v163H60c-11.028 0-20-8.972-20-20V60c0-11.028 8.972-20 20-20h392c11.028 0 20 8.972 20 20v392z"></path>
  </symbol>
  <symbol xmlns="http://www.w3.org/2000/svg" viewBox="0 0 461.001 461.001" id="youtube">
    <path d="M365.257 67.393H95.744C42.866 67.393 0 110.259 0 163.137v134.728c0 52.878 42.866 95.744 95.744 95.744h269.513c52.878 0 95.744-42.866 95.744-95.744V163.137c0-52.878-42.866-95.744-95.744-95.744zm-64.751 169.663l-126.06 60.123c-3.359 1.602-7.239-.847-7.239-4.568V168.607c0-3.774 3.982-6.22 7.348-4.514l126.06 63.881c3.748 1.899 3.683 7.274-.109 9.082z" fill="#f61c0d"></path>
  </symbol>
  <symbol xmlns="http://www.w3.org/2000/svg" viewBox="0 0 427.652 427.652" id="spotify">
    <path d="M213.826 0C95.733 0 0 95.733 0 213.826s95.733 213.826 213.826 213.826 213.826-95.733 213.826-213.826S331.919 0 213.826 0zm93.06 310.32c-2.719 4.652-7.612 7.246-12.638 7.247a14.56 14.56 0 01-7.364-2c-38.425-22.456-82.815-26.065-113.295-25.138-33.763 1.027-58.523 7.692-58.769 7.76-7.783 2.126-15.826-2.454-17.961-10.236-2.134-7.781 2.43-15.819 10.209-17.962 1.116-.307 27.76-7.544 64.811-8.766 21.824-.72 42.834.801 62.438 4.52 24.83 4.71 47.48 12.978 67.322 24.574 6.973 4.074 9.321 13.03 5.247 20.001zm27.184-56.459c-3.22 5.511-9.016 8.583-14.97 8.584-2.968 0-5.975-.763-8.723-2.369-45.514-26.6-98.097-30.873-134.2-29.776-39.994 1.217-69.323 9.112-69.614 9.192-9.217 2.515-18.746-2.906-21.275-12.124-2.528-9.218 2.879-18.738 12.093-21.277 1.322-.364 32.882-8.937 76.77-10.384 25.853-.852 50.739.949 73.96 5.354 29.412 5.58 56.241 15.373 79.744 29.108 8.26 4.826 11.042 15.434 6.215 23.692zm16.711-51.335c-3.641 0-7.329-.936-10.7-2.906-108.207-63.238-248.572-25.643-249.977-25.255-11.313 3.117-23.008-3.527-26.124-14.839-3.117-11.312 3.527-23.008 14.839-26.124 1.621-.447 40.333-10.962 94.166-12.737 31.713-1.044 62.237 1.164 90.72 6.567 36.077 6.844 68.987 18.856 97.815 35.704 10.13 5.92 13.543 18.931 7.623 29.061-3.95 6.76-11.059 10.529-18.362 10.529z" fill="#00d95f"></path>
  </symbol>
</svg>